HIERARCHY
ROOT Hips
{
    OFFSET 0.0 0.0 0.0
    CHANNELS 6 Xposition Yposition Zposition Zrotation Xrotation Yrotation
    JOINT LeftHipJoint
    {
        OFFSET 0.1 0.0 0.0
        CHANNELS 3 Zrotation Xrotation Yrotation
        JOINT LeftUpLeg
        {
            OFFSET 0.12778419256210327 0.0 0.0
            CHANNELS 3 Zrotation Xrotation Yrotation
            JOINT LeftLeg
            {
                OFFSET 0.0 0.0 -0.3963471055030823
                CHANNELS 3 Zrotation Xrotation Yrotation
                JOINT LeftFoot
                {
                    OFFSET 0.0 0.0 -0.4405164122581482
                    CHANNELS 3 Zrotation Xrotation Yrotation
                    End Site
                    {
                        OFFSET 0.0 -0.1 0.0
                    }
                }
            }
        }
    }
    JOINT LowerBack
    {
        OFFSET 0.0 0.0 0.1
        CHANNELS 3 Zrotation Xrotation Yrotation
        JOINT Spine
        {
            OFFSET 0.0 0.0 0.2307175248861313
            CHANNELS 3 Zrotation Xrotation Yrotation
            JOINT Spine1
            {
                OFFSET 0.0 0.0 0.27248820662498474
                CHANNELS 3 Zrotation Xrotation Yrotation
                JOINT LeftShoulder
                {
                    OFFSET 0.1 0.0 0.0
                    CHANNELS 3 Zrotation Xrotation Yrotation
                    JOINT LeftArm
                    {
                        OFFSET 0.16504046320915222 0.0 0.0
                        CHANNELS 3 Zrotation Xrotation Yrotation
                        JOINT LeftForeArm
                        {
                            OFFSET 0.24122363328933716 0.0 0.0
                            CHANNELS 3 Zrotation Xrotation Yrotation
                            JOINT LeftHand
                            {
                                OFFSET 0.2034168690443039 0.0 0.0
                                CHANNELS 3 Zrotation Xrotation Yrotation
                                End Site
                                {
                                    OFFSET 0.1 0.0 0.0
                                }
                            }
                        }
                    }
                }
                JOINT Neck
                {
                    OFFSET 0.0 0.0 0.1
                    CHANNELS 3 Zrotation Xrotation Yrotation
                    JOINT Neck1
                    {
                        OFFSET 0.0 0.0 0.1185329407453537
                        CHANNELS 3 Zrotation Xrotation Yrotation
                        End Site
                        {
                            OFFSET 0.0 0.0 0.07166734337806702
                        }
                    }
                }
                JOINT RightShoulder
                {
                    OFFSET -0.1 0.0 0.0
                    CHANNELS 3 Zrotation Xrotation Yrotation
                    JOINT RightArm
                    {
                        OFFSET -0.16504046320915222 0.0 0.0
                        CHANNELS 3 Zrotation Xrotation Yrotation
                        JOINT RightForeArm
                        {
                            OFFSET -0.24122363328933716 0.0 0.0
                            CHANNELS 3 Zrotation Xrotation Yrotation
                            JOINT RightHand
                            {
                                OFFSET -0.2034168690443039 0.0 0.0
                                CHANNELS 3 Zrotation Xrotation Yrotation
                                End Site
                                {
                                    OFFSET -0.1 0.0 0.0
                                }
                            }
                        }
                    }
                }
            }
        }
    }
    JOINT RightHipJoint
    {
        OFFSET -0.1 0.0 0.0
        CHANNELS 3 Zrotation Xrotation Yrotation
        JOINT RightUpLeg
        {
            OFFSET -0.12778419256210327 0.0 0.0
            CHANNELS 3 Zrotation Xrotation Yrotation
            JOINT RightLeg
            {
                OFFSET 0.0 0.0 -0.3963471055030823
                CHANNELS 3 Zrotation Xrotation Yrotation
                JOINT RightFoot
                {
                    OFFSET 0.0 0.0 -0.4405164122581482
                    CHANNELS 3 Zrotation Xrotation Yrotation
                    End Site
                    {
                        OFFSET 0.0 -0.1 0.0
                    }
                }
            }
        }
    }
}
MOTION
Frames: 7
Frame Time: 0.03333333333333333
-0.0 -0.0 0.0 -2.2073233663330088e-07 16.72333976482316 -0.7369278038490772 3.189834316247588e-33 3.1806517442894894e-15 -1.1492238595131847e-16 7.328768087050831 -31.70478203674415 20.935890275227674 9.375953343342715 34.2413558962587 -8.780549611803886 -7.951386703658792e-16 9.93923337957349e-17 -5.963540027744094e-16 3.189834316247588e-33 3.1806517442894894e-15 -1.1492238595131847e-16 -0.14371372482786357 11.034547712448626 -18.12582827237082 27.43527367255525 2.201811308855543e-06 -6.225064200218779e-07 3.1805546814635168e-15 -2.2069531490250793e-32 -7.951386703658792e-16 5.6918923536380595 -49.64658898582684 30.880582809166295 -67.0281630366769 -5.224709731253403e-07 -1.6763424737912926e-06 0.0 0.0 0.0 3.1805546814635168e-15 -2.2069531490250793e-32 -7.951386703658792e-16 -6.736899360348599 34.279737720652015 11.08006928976707 3.1805546814635168e-15 -2.2069531490250793e-32 -7.951386703658792e-16 13.375132705442033 -18.281244272876506 35.30136677543037 53.02092167781789 7.096766038545324e-07 -5.520082715336059e-07 -6.3611093629270335e-15 7.951386703658792e-16 4.4139062980501586e-32 3.189834316247588e-33 3.1806517442894894e-15 -1.1492238595131847e-16 -5.481565708575439 -24.62001405842325 10.4446638304968 6.67354712511933 22.49478369643688 -12.27816589445716 -3.975693351829397e-16 3.4483642953516864e-34 -9.939233379573492e-17
-0.0 -0.0 0.0 -1.902039103606624e-06 16.726854767916105 -0.7316873288877325 -1.2424041724466865e-17 -9.706282597239739e-20 -4.348414603563403e-17 7.343848169627205 -31.680059009937374 20.978015782853074 9.375969762601716 34.196053158188505 -8.807077433600194 -7.951386703658791e-16 1.517280289954742e-32 -2.1866313435061676e-15 -1.2424041724466865e-17 -9.706282597239739e-20 -4.348414603563403e-17 -0.14255247968834941 11.024039635951711 -18.153402457845612 27.42870811562704 8.920383331245108e-07 -9.256740450024446e-07 -2.2069531490250793e-32 3.1805546814635176e-15 7.951386703658794e-16 5.708912859527389 -49.644098878083156 30.962091682860944 -66.96454096826947 8.841886036603819e-07 1.5019280126171219e-06 0.0 0.0 -1.5902773407317584e-15 -2.2069531490250793e-32 3.1805546814635176e-15 7.951386703658794e-16 -6.8269706611788825 34.29058908844462 11.259739516650388 -2.2069531490250793e-32 3.1805546814635176e-15 7.951386703658794e-16 13.361848584263674 -18.232009148628887 35.26916090726072 52.9999008355773 -1.775466265802051e-07 1.3007099383271259e-07 6.3611093629270335e-15 -2.2069531490250793e-32 -3.975693351829396e-16 -1.2424041724466865e-17 -9.706282597239739e-20 -4.348414603563403e-17 -5.4997573288952495 -24.63949190931407 10.450736638966317 6.6867992978371324 22.48827350845019 -12.269247637560106 -6.7350865143587625e-37 7.765026077791789e-19 9.93923337957349e-17
-0.0 -0.0 0.0 4.2140403821028285e-07 16.732919621282214 -0.7263956826244067 -1.2424041724466862e-17 -7.071840840076701e-36 6.522621905345103e-17 7.357068372510803 -31.655329317816857 21.020377686832223 9.375282145042688 34.14672465613309 -8.834268307436306 -3.4483642953516864e-34 9.93923337957349e-17 3.975693351829396e-16 -1.2424041724466862e-17 -7.071840840076701e-36 6.522621905345103e-17 -0.14138216176850193 11.013455310970224 -18.182215124788662 27.423923569691688 -9.383553938023018e-07 2.2473748752718992e-07 -3.1805546814635168e-15 -3.975693351829396e-15 -7.951386703658794e-16 5.704427932920138 -49.6442519030365 31.016196865418156 -66.8981456681739 7.132331445891175e-07 3.68056378666906e-06 0.0 0.0 -1.5902773407317584e-15 -3.1805546814635168e-15 -3.975693351829396e-15 -7.951386703658794e-16 -6.930805865405114 34.29422536124827 11.453750235999427 -3.1805546814635168e-15 -3.975693351829396e-15 -7.951386703658794e-16 13.368037599999623 -18.207150940214785 35.24787772004892 52.976578881529555 -3.537326586565036e-08 -8.187515685694755e-07 -6.3611093629270335e-15 3.9756933518293955e-16 7.951386703658792e-16 -1.2424041724466862e-17 -7.071840840076701e-36 6.522621905345103e-17 -5.516235493907862 -24.659232452907816 10.452896614771138 6.697155310842132 22.479366416345233 -12.254037211851125 0.0 0.0 0.0
-0.0 -0.0 0.0 1.9869938876159875e-06 16.745539593733735 -0.7191093175271644 -1.2424041724466862e-17 3.1805546814635164e-15 9.007430250238474e-17 7.363792039750573 -31.63934992244355 21.057406641040668 9.368093456136297 34.099240037509766 -8.854486718000958 1.7241821476758432e-34 9.93923337957349e-17 -1.987846675914698e-16 -1.2424041724466862e-17 3.1805546814635164e-15 9.007430250238474e-17 -0.1398026633561596 11.001107483952136 -18.2126365939865 27.421768153065276 -1.4587903526129055e-06 2.5327777632746395e-06 -3.1805546814635168e-15 -4.4139062980501586e-32 1.5902773407317584e-15 5.677118275247346 -49.6533055281206 31.04180452597806 -66.82055040268682 -4.0125227069276765e-07 4.0288886374994545e-06 0.0 0.0 0.0 -3.1805546814635168e-15 -4.4139062980501586e-32 1.5902773407317584e-15 -7.049207296963178 34.289568147749435 11.662710871419693 -3.1805546814635168e-15 -4.4139062980501586e-32 1.5902773407317584e-15 13.391565282644457 -18.203347713763037 35.23813666943445 52.9518551652037 4.622052351295818e-07 2.989999547143089e-07 0.0 3.975693351829396e-16 0.0 -1.2424041724466862e-17 3.1805546814635164e-15 9.007430250238474e-17 -5.527639770661145 -24.683743320786864 10.451002485198893 6.708953298892629 22.468546640696644 -12.2373673030709 -3.975693351829397e-16 -7.765026077791791e-19 -2.694034605743505e-36
-0.0 -0.0 0.0 2.71005434219681e-07 16.754311774286865 -0.7144994960074191 0.0 0.0 -3.1060104311167164e-18 7.377311311259395 -31.616647008591915 21.10071135319312 9.372150509897656 34.050030831974354 -8.883898444027613 0.0 -3.1805546814635168e-15 0.0 0.0 0.0 -3.1060104311167164e-18 -0.13883094685500186 10.995274815245033 -18.24132497590524 27.42331884181136 -8.06052202539836e-07 4.49630697889445e-07 3.1805546814635164e-15 3.1805546814635164e-15 7.95138670365879e-16 5.628405656889229 -49.66633628408097 31.039000092047598 -66.7362578044044 6.727291383832092e-07 1.4282070611302491e-06 0.0 3.1805546814635168e-15 0.0 3.1805546814635164e-15 3.1805546814635164e-15 7.95138670365879e-16 -7.178078497131288 34.27410467624064 11.887558967934629 3.1805546814635164e-15 3.1805546814635164e-15 7.95138670365879e-16 13.429253899486916 -18.224885065606518 35.24089002173425 52.927763921266326 3.8539415416371614e-07 -1.0620984118830776e-06 6.3611093629270335e-15 2.2069531490250793e-32 3.975693351829396e-16 0.0 0.0 -3.1060104311167164e-18 -5.543968000860648 -24.704103615953578 10.448496275837517 6.714078800630059 22.45996015559302 -12.209443332494319 3.975693351829396e-16 6.896728590703373e-34 1.987846675914698e-16
-0.0 -0.0 0.0 2.1188628317674136e-07 16.767683910294185 -0.7070591639936256 -1.2424041724466862e-17 9.706282597239736e-20 9.318031293350147e-18 7.386098061364585 -31.603112800942213 21.13928873927122 9.37393962411407 34.006079838993244 -8.908230983596336 7.951386703658791e-16 -2.758691436281349e-33 -3.9756933518293955e-16 -1.2424041724466862e-17 9.706282597239736e-20 9.318031293350147e-18 -0.13731501347504566 10.989757509801423 -18.270949898253107 27.427767533773462 -5.048664353872084e-07 -1.1853113537710216e-06 0.0 0.0 -7.95138670365879e-16 5.559453222443015 -49.683427400378775 31.01269783089841 -66.64396173723779 -1.4757710429289384e-06 -1.1648387113775448e-06 6.3611093629270335e-15 0.0 0.0 0.0 0.0 -7.95138670365879e-16 -7.301880102829754 34.25600328557438 12.11542945016713 0.0 0.0 -7.95138670365879e-16 13.472084298450481 -18.25938809882664 35.25066908021138 52.90862199079272 8.306246885743042e-09 3.4700047481605875e-07 0.0 3.975693351829396e-16 0.0 -1.2424041724466862e-17 9.706282597239736e-20 9.318031293350147e-18 -5.557952647604189 -24.728403490037557 10.442181874782726 6.720255834266652 22.450095937500656 -12.179042599999514 -2.758691436281349e-33 3.1805546814635176e-15 9.939233379573492e-17
-0.0 -0.0 0.0 2.2140093676575984e-06 16.78476541447455 -0.6948964876122085 1.2424041724466862e-17 9.706282597239736e-20 -1.8636062586700294e-17 7.38294909635228 -31.601234208246435 21.166249301440523 9.37963115628955 33.968676979011605 -8.927299084170293 7.951386703658791e-16 -9.939233379573489e-17 5.963540027744093e-16 1.2424041724466862e-17 9.706282597239736e-20 -1.8636062586700294e-17 -0.13487477661612166 10.98356837708064 -18.30106442956253 27.434105187058456 5.001199083272549e-07 -8.277186018604767e-07 -3.1805546814635168e-15 -2.2069531490250793e-32 7.951386703658792e-16 5.468952617959752 -49.69813536706998 30.959486511070825 -66.55098527618175 -1.1832052120499993e-06 -2.2954252276283547e-06 0.0 0.0 0.0 -3.1805546814635168e-15 -2.2069531490250793e-32 7.951386703658792e-16 -7.39489480287479 34.24520268548984 12.32080340948732 -3.1805546814635168e-15 -2.2069531490250793e-32 7.951386703658792e-16 13.506332383109589 -18.2906350004766 35.264155625460226 52.90554218429471 3.6877099160209646e-07 -1.8288161529323168e-07 2.758691436281349e-33 7.951386703658792e-16 -3.975693351829396e-16 1.2424041724466862e-17 9.706282597239736e-20 -1.8636062586700294e-17 -5.566435094799362 -24.754095368550225 10.432868798881026 6.723631040065854 22.438282844390628 -12.148461457697227 0.0 9.706282597239741e-20 0.0
